### **Draw.io XML Code for Multidimensional Chart**

```xml
<mxfile host="app.diagrams.net">
  <diagram name="Multidimensional Chart">
    <mxGraphModel dx="1000" dy="1000" grid="1" gridSize="10" guides="1" tooltips="1" connect="1" arrows="1" fold="1" page="1" pageScale="1" pageWidth="827" pageHeight="1169" math="0" shadow="0">
      <root>
        <mxCell id="0" />
        <mxCell id="1" parent="0" />
        
        <!-- Phases -->
        <mxCell id="Phases" value="Phases" style="swimlane;horizontal=1;startSize=20;" vertex="1" parent="1">
          <mxGeometry x="0" y="0" width="1000" height="200" as="geometry" />
        </mxCell>
        <mxCell id="Phase1" value="Pre-Board Planning" style="rounded=1;whiteSpace=wrap;html=1;" vertex="1" parent="Phases">
          <mxGeometry x="20" y="40" width="200" height="60" as="geometry" />
        </mxCell>
        <mxCell id="Phase2" value="Preparation" style="rounded=1;whiteSpace=wrap;html=1;" vertex="1" parent="Phases">
          <mxGeometry x="240" y="40" width="200" height="60" as="geometry" />
        </mxCell>
        <mxCell id="Phase3" value="Execution" style="rounded=1;whiteSpace=wrap;html=1;" vertex="1" parent="Phases">
          <mxGeometry x="460" y="40" width="200" height="60" as="geometry" />
        </mxCell>
        <mxCell id="Phase4" value="Post-Board Actions" style="rounded=1;whiteSpace=wrap;html=1;" vertex="1" parent="Phases">
          <mxGeometry x="680" y="40" width="200" height="60" as="geometry" />
        </mxCell>

        <!-- Datasets -->
        <mxCell id="Datasets" value="Datasets" style="swimlane;horizontal=1;startSize=20;" vertex="1" parent="1">
          <mxGeometry x="0" y="220" width="1000" height="200" as="geometry" />
        </mxCell>
        <mxCell id="Dataset1" value="Board Population Dataset" style="rounded=1;whiteSpace=wrap;html=1;" vertex="1" parent="Datasets">
          <mxGeometry x="20" y="240" width="200" height="60" as="geometry" />
        </mxCell>
        <mxCell id="Dataset2" value="Board Messages Dataset" style="rounded=1;whiteSpace=wrap;html=1;" vertex="1" parent="Datasets">
          <mxGeometry x="240" y="240" width="200" height="60" as="geometry" />
        </mxCell>
        <mxCell id="Dataset3" value="Board Scoring Dataset" style="rounded=1;whiteSpace=wrap;html=1;" vertex="1" parent="Datasets">
          <mxGeometry x="460" y="240" width="200" height="60" as="geometry" />
        </mxCell>
        <mxCell id="Dataset4" value="Board Results Dataset" style="rounded=1;whiteSpace=wrap;html=1;" vertex="1" parent="Datasets">
          <mxGeometry x="680" y="240" width="200" height="60" as="geometry" />
        </mxCell>

        <!-- Systems -->
        <mxCell id="Systems" value="Systems" style="swimlane;horizontal=1;startSize=20;" vertex="1" parent="1">
          <mxGeometry x="0" y="440" width="1000" height="200" as="geometry" />
        </mxCell>
        <mxCell id="System1" value="STARS" style="rounded=1;whiteSpace=wrap;html=1;" vertex="1" parent="Systems">
          <mxGeometry x="20" y="460" width="200" height="60" as="geometry" />
        </mxCell>
        <mxCell id="System2" value="MyVector" style="rounded=1;whiteSpace=wrap;html=1;" vertex="1" parent="Systems">
          <mxGeometry x="240" y="460" width="200" height="60" as="geometry" />
        </mxCell>
        <mxCell id="System3" value="Salesforce" style="rounded=1;whiteSpace=wrap;html=1;" vertex="1" parent="Systems">
          <mxGeometry x="460" y="460" width="200" height="60" as="geometry" />
        </mxCell>
        <mxCell id="System4" value="HireVue" style="rounded=1;whiteSpace=wrap;html=1;" vertex="1" parent="Systems">
          <mxGeometry x="680" y="460" width="200" height="60" as="geometry" />
        </mxCell>

        <!-- Connections -->
        <mxCell id="Connection1" value="" style="edgeStyle=orthogonalEdgeStyle;rounded=1;" edge="1" parent="1" source="Phase1" target="Dataset1">
          <mxGeometry relative="1" as="geometry" />
        </mxCell>
        <mxCell id="Connection2" value="" style="edgeStyle=orthogonalEdgeStyle;rounded=1;" edge="1" parent="1" source="Phase2" target="Dataset2">
          <mxGeometry relative="1" as="geometry" />
        </mxCell>
        <mxCell id="Connection3" value="" style="edgeStyle=orthogonalEdgeStyle;rounded=1;" edge="1" parent="1" source="Phase3" target="Dataset3">
          <mxGeometry relative="1" as="geometry" />
        </mxCell>
        <mxCell id="Connection4" value="" style="edgeStyle=orthogonalEdgeStyle;rounded=1;" edge="1" parent="1" source="Phase4" target="Dataset4">
          <mxGeometry relative="1" as="geometry" />
        </mxCell>
        <mxCell id="Connection5" value="" style="edgeStyle=orthogonalEdgeStyle;rounded=1;" edge="1" parent="1" source="Dataset1" target="System1">
          <mxGeometry relative="1" as="geometry" />
        </mxCell>
        <mxCell id="Connection6" value="" style="edgeStyle=orthogonalEdgeStyle;rounded=1;" edge="1" parent="1" source="Dataset2" target="System2">
          <mxGeometry relative="1" as="geometry" />
        </mxCell>
        <mxCell id="Connection7" value="" style="edgeStyle=orthogonalEdgeStyle;rounded=1;" edge="1" parent="1" source="Dataset3" target="System3">
          <mxGeometry relative="1" as="geometry" />
        </mxCell>
        <mxCell id="Connection8" value="" style="edgeStyle=orthogonalEdgeStyle;rounded=1;" edge="1" parent="1" source="Dataset4" target="System4">
          <mxGeometry relative="1" as="geometry" />
        </mxCell>
      </root>
    </mxGraphModel>
  </diagram>
</mxfile>
